<?xml version="1.0" ?><svg enable-background="new 0 0 64 64" version="1.1" viewBox="0 0 64 64" xml:space="preserve" xmlns="http://www.w3.org/2000/svg" xmlns:xlink="http://www.w3.org/1999/xlink"><g id="Glyph_copy_2"><path d="M20.933,25.636v12.728L32,44.734l11.067-6.37V25.636L32,19.266L20.933,25.636z M39.09,31.833c0,3.9-3.181,7.073-7.09,7.073   c-3.91,0-7.091-3.173-7.091-7.073S28.09,24.76,32,24.76C35.91,24.76,39.09,27.933,39.09,31.833z"/><ellipse cx="32" cy="31.833" rx="3.09" ry="3.073"/><path d="M4.204,15.998v32.003L32,63.998l27.795-15.997V15.998L32,0.001L4.204,15.998z M47.068,40.676L32,49.349l-15.067-8.673   V23.324L32,14.651l15.067,8.673V40.676z"/></g></svg>